<svg width="85" height="50" xmlns="http://www.w3.org/2000/svg"><path d="M45.007 36.224h11.607c1.734 0 3.157-.713 4.314-2.138 1.112-1.38 1.69-3.029 1.69-4.9 0-3.786-4.848-6.458-6.716-6.458h-6.36c-.488 0-.889-.223-1.2-.58-.311-.4-.49-.845-.49-1.38 0-.623.179-1.158.49-1.603.356-.446.8-.713 1.334-.713h11.919v-4.766H49.454c-2.18 0-3.87.668-5.07 1.96-1.067 1.203-1.601 2.806-1.601 4.721 0 1.871.534 3.519 1.601 4.855 1.2 1.47 2.624 2.227 4.358 2.227h7.338c.445 0 .8.134 1.068.49.311.357.444.802.444 1.292 0 .579-.222 1.114-.578 1.559-.4.4-.845.623-1.423.623H43.85l-.179-.311-4.401-14.164-.223-.446c-1.067-2.182-2.846-3.251-5.292-3.251-1.334 0-2.535.311-3.602.98-1.112.668-1.824 1.648-2.224 2.895l-5.915 19.063 5.381.045 5.426-16.97c.134-.535.445-.802.845-.802.222 0 .4.09.534.223.133.178.222.356.267.579l5.47 16.97h5.07M4.981 20.635v15.544H0V18.942c0-2.227.534-3.786 1.69-4.722.89-.668 2.224-1.024 4.092-1.024 1.512 0 2.802.446 3.958 1.292s1.912 2.004 2.312 3.43L15.3 29.365l.534 1.558c.044.312.222.535.4.713.222.179.445.268.711.179.445-.045.667-.312.667-.713V13.73h5.115v17.149c0 1.915-.445 3.34-1.379 4.365-.89 1.025-2.223 1.559-4.002 1.559-1.557 0-2.847-.312-3.87-.846-1.245-.624-2.045-1.604-2.401-2.895l-3.737-13.05-.267-.847c-.088-.312-.266-.535-.489-.757a.928.928 0 00-.756-.179c-.267.045-.445.179-.622.446a1.54 1.54 0 00-.223.802v1.158m79.606 15.589l-5.781-19.286-.223-.446c-1.067-2.182-2.846-3.251-5.292-3.251-1.334 0-2.535.311-3.602.98-1.112.668-1.823 1.648-2.224 2.895L61.55 36.179l5.382.045 5.425-16.97c.134-.535.445-.802.845-.802.223 0 .4.09.534.223.134.178.222.356.267.579l5.47 16.97h5.114" fill="#1a1919" fill-rule="evenodd"/></svg>