<svg width="149" height="50" viewBox="0 0 39.423 13.229" xmlns="http://www.w3.org/2000/svg"><g fill-rule="evenodd"><path d="M2.618 3.184c.076-.05.13-.094.16-.118.143-.115.191-.05.063.159-.168.273-.44.443-.762.605-.066.032-.14.063.007.132.124.06.43.183.7.26.157.043 1.207.408 2.206.405.726-.004 1.376-.097 1.75-.128.28-.024.89-.077 1.194.467.254.454.2 1.876.213 2.2.01.232 0 2.13-.001 2.296-.002.112-.01.197-.094.207-.077.009-.296.004-.336.004h-.176c-.124 0-.121.057-.121.09 0 .07.027.148-.132.154-.109.003-.461 0-.507 0-.076 0-.119-.095-.051-.215.645-1.163.599-2.047.218-2.54-.026.09-.05.164-.07.266-.05.27-.105.388-.164.436-.678.546-1.002 1.354-1.16 1.775-.033.088-.098.055-.128.093-.049.063.056.178-.144.184-.08.003-.47.002-.549.002-.092 0-.144-.113-.052-.225.209-.254 1.394-1.372 1.335-2.535-.003-.05-.036-.297-.086-.344-.01-.01-.208-.181-.635.17-.048.04-.055.025-.116-.01-.066-.037-.583-.222-.961-.11-.24.07-.522.366-.413.834.15.66.49 1.227.621 1.895.017.12-.067.09-.102.135-.048.063.054.187-.154.187h-.527c-.098.004-.151-.04-.086-.245a2.342 2.342 0 00.024-1.008c-.123-.757-.534-1.13-.877-1.353-.233.147-.608 1.287-.715 2.053a2.43 2.43 0 00-.021.185c-.015.191-.13.122-.162.176-.045.077.045.194-.163.194h-.497c-.1 0-.116-.112-.041-.246.316-.565.812-1.438.803-2.38-.001-.109 0-.433-.152-.612-.338-.404-.528-.89-.702-1.2-.12-.215-.295-.265-.411-.301C.529 5.14.43 5.193.3 5.119.264 5.1.17 4.975.083 4.88.011 4.8-.04 4.686.044 4.578c.15-.189.275-.312.292-.433.004-.029 0-.09.01-.12.035-.095.163-.247.255-.36.045-.055.008-.148-.074-.242-.08-.094-.323-.426-.323-.974 0-.217.076-.206.13-.058.054.148.285.794.976.978.649.173 1.075-.013 1.309-.184zm5.037 2.19c-.004.036.01.255-.028.639-.024.238-.084.42-.048.604.035.185.132.771.176.826.038.047.093.013.093-.033 0-.032.059-1.6-.08-1.991-.048-.13-.105-.139-.113-.045z" fill="#0a417a"/><path d="M.55 1.932A1.246 1.246 0 011.797.688a1.245 1.245 0 011.247 1.244 1.246 1.246 0 01-1.247 1.244A1.246 1.246 0 01.55 1.932" fill="#0a417a"/><g fill="#00a3da"><path d="M1.006 1.785a.84.84 0 01.84-.837.839.839 0 01.84.837.838.838 0 01-.84.838.839.839 0 01-.84-.838M2.1 4.245c-.107-.066-.33-.18-.552-.31-.4-.233-.603-.355-.754-.234-.157.127-.277.3-.299.36-.021.06-.012.207-.065.273-.04.049-.099.142-.182.244-.115.14-.032.184.09.33.116.138.377-.005.67.226.146.116.2.206.39.506.065.1.103.04.156-.095.073-.19.324-.722.514-1.012.063-.097.152-.215.032-.289zM.727 4.187c-.118-.202.318-.26.34-.197.02.062-.22.4-.34.197zm3.544.793c-.015-.113-.035-.196.153-.186.252.012.375.025.53.023.187-.002.404-.007.487-.014.149-.013.244.031.293.148.048.113.216.58-.063.709-.356.167-.874.188-1.13.112-.097-.027-.25-.063-.247-.255 0-.065.005-.314-.023-.537m2.178-.117c.144.159.229.42.246.532.018.111.17.068.19-.037.027-.155-.022-.413-.137-.55-.053-.064-.144-.093-.249-.072-.1.018-.127.042-.05.127"/><path d="M4.324 6.523c-.076.025-.723.208-.735.871-.003.196-.059.178-.15.108a10.523 10.523 0 00-1.089-.734c-.21-.125-.393-.3-.46-.417-.107-.188-.253-.475-.088-.918.081-.22.249-.563.378-.751.208-.308.186-.311.59-.181.363.116.344.16.349.337.006.233-.024.443-.072.658a.196.196 0 00.186.243c.57.015.581-.771.581-.773.012-.183-.057-.22.125-.202.136.012.16.128.18.335.007.077.002.374.002.455 0 .08.01.291.288.367.462.127 1.104.026 1.368-.13.154-.091.254-.195.233-.417a2.074 2.074 0 00-.091-.448c-.035-.085-.03-.145.043-.154.347-.047.503.313.622.753.038.143.236.134.336.036.098-.095.155-.246.085-.528a.816.816 0 00-.082-.21c-.026-.043-.032-.08.062-.08.634-.005.475 1.166.467 1.266-.01.125-.062.394-.09.518-.112.515-.379.31-.463.256a2.095 2.095 0 00-.97-.326c-.863-.078-1.348-.02-1.605.066"/><path d="M3.298 4.768c.031.364-.068.65-.067.706.002.074.094.094.167.053.13-.071.23-.32.222-.7-.003-.093.002-.135-.156-.16-.151-.025-.176-.019-.166.101"/></g><path d="M24.669 9.76V7.742c0-.344-.006-.963-1.183-.963-.446 0-.75.088-.914.14-.198.063-.263.14-.263.24v2.605c0 .1.03.111.112.111h.287c.08 0 .123-.012.123-.116V7.364c0-.135.221-.269.633-.269.683 0 .683.44.683.713v1.951c0 .105.036.117.13.117h.322c.064-.012.07-.065.07-.117m3.1-1.385c0-.7-.223-1.15-.562-1.377a1.38 1.38 0 00-.764-.217c-.268 0-.55.072-.76.217-.34.227-.561.677-.561 1.377 0 .696.222 1.146.56 1.374.212.146.493.216.76.216.27 0 .553-.07.765-.217.338-.227.561-.677.561-1.373zm-.54 0c0 .55-.112.905-.274 1.059-.16.151-.306.191-.512.191-.204 0-.35-.04-.508-.191-.165-.154-.277-.508-.277-1.059 0-.555.112-.91.277-1.063.158-.152.304-.192.508-.192.206 0 .353.04.512.192.162.153.273.508.273 1.063zm2.626-1.29c0-.211-.358-.304-.76-.304a2.305 2.305 0 00-.667.093c-.2.054-.272.14-.272.24v2.663c0 .095.037.1.118.1h.299c.07 0 .105-.004.105-.1V7.335c0-.158.123-.264.3-.264.375 0 .432.276.631.276.137 0 .246-.094.246-.264m2.578 2.472V5.887c0-.105-.03-.12-.119-.12h-.286c-.1 0-.111.037-.111.13v1.06a1.275 1.275 0 00-.64-.16c-.906 0-1.374.86-1.374 1.577 0 1.066.59 1.59 1.481 1.59.438 0 1.049-.216 1.049-.409zm-.516-.17c0 .154-.246.235-.517.235-.566 0-.97-.474-.97-1.285 0-.708.386-1.182.924-1.182.306 0 .45.094.563.188v2.044zm1.785-3.376a.302.302 0 00-.309-.294c-.188 0-.323.13-.323.312 0 .164.118.301.315.301a.307.307 0 00.317-.32zm-.057 3.762v-2.81c0-.093-.024-.112-.117-.112h-.305c-.1 0-.1.035-.1.112v2.81c0 .081 0 .105.088.105h.317c.088 0 .117-.005.117-.105zm5.195.04c0-.028-.016-.046-.04-.076L37.688 8.27l-.007-.006a3.677 3.677 0 001.043-1.233c.029-.058.034-.082.034-.116 0-.053-.03-.066-.106-.066h-.274c-.104 0-.153-.004-.182.088-.163.501-.597 1.04-1.036 1.297-.017.013-.024.03-.024.036a.045.045 0 00.012.029l1.043 1.489c.059.088.083.088.175.088h.399c.017 0 .075-.005.075-.065zm-1.786-.023V5.833c0-.082-.04-.082-.112-.082h-.308c-.067 0-.1.012-.1.094v3.938c0 .081.017.093.1.093h.308c.083 0 .112 0 .112-.088zm-.932-.728c0-.982-1.441-.83-1.441-1.48 0-.221.176-.449.504-.449.34 0 .428.221.602.221.088 0 .211-.052.211-.205 0-.22-.38-.35-.784-.35-.533 0-1 .286-1 .83 0 .503.356.719.783.9.34.141.656.27.656.59 0 .24-.195.514-.603.514-.41 0-.528-.304-.726-.304-.1 0-.224.041-.224.193 0 .24.47.444.945.444.526 0 1.077-.28 1.077-.904m-23.974.7V7.742c0-.344-.006-.963-1.183-.963-.445 0-.75.088-.914.14-.199.063-.262.14-.262.24v2.605c0 .1.028.111.11.111h.287c.082 0 .124-.012.124-.116V7.364c0-.135.222-.269.63-.269.687 0 .687.44.687.713v1.951c0 .105.035.117.128.117h.323c.064-.012.07-.065.07-.117m3.1-1.385c0-.7-.224-1.15-.563-1.377a1.373 1.373 0 00-.762-.217c-.27 0-.55.072-.761.217-.34.227-.562.677-.562 1.377 0 .696.223 1.146.562 1.374.21.146.49.216.76.216s.552-.07.763-.217c.339-.227.562-.677.562-1.373zm-.539 0c0 .55-.112.905-.276 1.059-.158.151-.304.191-.51.191-.204 0-.35-.04-.51-.191-.163-.154-.274-.508-.274-1.059 0-.555.11-.91.274-1.063.159-.152.306-.192.51-.192.206 0 .352.04.51.192.164.153.276.508.276 1.063zm5.887 0c0-.7-.222-1.15-.563-1.377a1.366 1.366 0 00-.76-.217c-.27 0-.55.072-.762.217-.339.227-.561.677-.561 1.377 0 .696.222 1.146.56 1.374.212.146.493.216.763.216s.55-.07.76-.217c.341-.227.563-.677.563-1.373zm-.538 0c0 .55-.11.905-.275 1.059-.158.151-.306.191-.51.191s-.352-.04-.51-.191c-.164-.154-.275-.508-.275-1.059 0-.555.11-.91.275-1.063.158-.152.305-.192.51-.192s.352.04.51.192c.164.153.275.508.275 1.063zM17.9 6.91c0-.06-.046-.06-.076-.06h-.292c-.04.007-.053.024-.07.082L16.7 9.157l-.791-2.214c-.03-.081-.041-.094-.13-.094h-.356c-.024 0-.082 0-.082.07 0 .024.01.054.023.084l1.06 2.78c.03.07.041.088.087.093h.23c.069 0 .082-.005.11-.088l1.025-2.785c.023-.072.023-.083.023-.094M38.745 5.51h.103c.055 0 .142 0 .142.084 0 .085-.093.085-.136.085h-.109zm-.09.482h.09v-.236h.053c.072 0 .1.028.167.149l.05.087h.109l-.068-.108c-.07-.11-.097-.128-.13-.14v-.002c.116-.007.16-.094.16-.156a.144.144 0 00-.054-.112c-.046-.04-.12-.04-.184-.04h-.193v.559zm.227-.806a.52.52 0 100 1.04.52.52 0 000-1.04zm0 .087a.433.433 0 110 .866.434.434 0 01-.434-.434c0-.239.194-.432.434-.432z" fill="#0a417a"/></g></svg>