<svg width="128" height="128" viewBox="0 0 128 128" xmlns="http://www.w3.org/2000/svg"><g fill="none" fill-rule="evenodd"><path d="M94 16c11.046 0 20 8.96 20 20 0 11.05-8.954 20-20 20-11.045 0-20-8.95-20-20 0-11.04 8.955-20 20-20" fill="#AAE4FF"/><path d="M91.96 19c2.227 0 4.04 1.825 4.04 4.074V53.36l10.249 3.444c2.115.706 3.253 2.991 2.536 5.087l-16.578 48.377c-.573 1.679-2.154 2.732-3.843 2.732-.432 0-.87-.07-1.301-.219l-69.31-23.298a4.029 4.029 0 01-2.332-2.027 3.962 3.962 0 01-.204-3.07l2.007-5.821A4.08 4.08 0 0115 74.926V23.074C15 20.825 16.813 19 19.04 19h72.92zM19.014 85.667l69.339 23.359 16.633-48.406L96 57.559v17.367C96 77.175 94.187 79 91.96 79H67.193l20.431 7.016c1.06.359 1.628 1.526 1.268 2.591A2.02 2.02 0 0186.974 90a2.06 2.06 0 01-.651-.102l-25.947-8.91A2.043 2.043 0 0159 79H33.222L83.64 96.105a1.996 1.996 0 011.253 2.533 1.998 1.998 0 01-2.542 1.252l-55.99-18.996A1.997 1.997 0 0125 79h-3.688l-2.298 6.667zm.025-62.633l-.042 51.892 72.963.04.043-.04V23.074l-72.964-.04zM84.001 64c1.103 0 1.999.9 1.999 2 0 1.11-.896 2-2 2H25c-1.105 0-2-.89-2-2 0-1.1.895-2 2-2h59zm.002-11c1.103 0 1.997.9 1.997 2s-.894 2-1.997 2H56.997a2.001 2.001 0 010-4h27.006zM39.41 30c2.91 0 4.407 1.355 5.15 2.49 1.16 1.766 1.126 3.664-.072 5.11a3.37 3.37 0 01.785 2.61l-.23 1.836a3.38 3.38 0 01-1.212 2.199 8.373 8.373 0 01-.828 1.947l1.577.402A7.133 7.133 0 0150 53.53 2.468 2.468 0 0147.534 56H26.466A2.465 2.465 0 0124 53.54a7.136 7.136 0 015.423-6.946l1.662-.422a8.227 8.227 0 01-.782-1.827 3.364 3.364 0 01-1.346-2.299l-.229-1.827c-.11-.899.137-1.789.68-2.489l.144-.17-.032-.39-.018-.323a6.128 6.128 0 01-.007-.262c0-3.453 2.017-5.4 5.844-5.641 1.207-.668 2.405-.863 3.241-.92l.336-.017L39.2 30l.208-.001zm0 4.015l-.25.002c-.547.01-1.366.082-2.101.58-.32.211-.694.332-1.078.342-1.991.04-2.377.46-2.451 1.126l-.013.164-.004.174v.238l.008.16.028.354.068.676.048.42a2.017 2.017 0 01-.896 1.918l.125.984c.554.258.967.751 1.112 1.358l.032.168a4.301 4.301 0 001.141 2.309c.483.502.673 1.214.505 1.887l-.318 1.275a1.98 1.98 0 01-1.46 1.455l-3.51.884c-.86.21-1.56.763-1.973 1.496H45.58a3.111 3.111 0 00-1.778-1.442l-.196-.054-3.508-.884a2.012 2.012 0 01-1.461-1.455l-.3-1.195a2.013 2.013 0 01.536-1.917 4.26 4.26 0 001.197-2.38 2.02 2.02 0 011.035-1.475l.13-1.034a2.02 2.02 0 01-.837-1.737l.084-1.726c.024-.492.233-.964.586-1.315l.339-.342c-.006.01-.013.008-.023-.005l-.136-.256-.094-.146c-.154-.213-.537-.607-1.744-.607zM84.003 41c1.103 0 1.997.89 1.997 2 0 1.1-.894 2-1.997 2H56.997a2.001 2.001 0 010-4h27.006zm0-11c1.103 0 1.997.9 1.997 2 0 1.11-.894 2-1.997 2H56.997a2.001 2.001 0 010-4h27.006z" fill="#007FED"/></g></svg>
