<svg width="128" height="128" viewBox="0 0 128 128" xmlns="http://www.w3.org/2000/svg"><g fill="none" fill-rule="evenodd"><path d="M88 14c11.045 0 20 8.95 20 20 0 11.04-8.955 20-20 20-11.046 0-20-8.96-20-20 0-11.05 8.954-20 20-20" fill="#AAE4FF"/><path d="M62.085 20.001c.236.202.466.403.687.624a14.875 14.875 0 003.704 2.335c.253.111.521.202.79.262 1.497.332 3.034.443 4.562.322l.153-.02c4.587-.584 8.857 2.546 9.69 7.135l.018.101c.355 1.48.926 2.888 1.698 4.197.142.241.307.463.49.674a14.983 14.983 0 003.477 2.888l.093.06.687.474c3.583 2.476 4.882 7.216 3.018 11.02a15.521 15.521 0 00-1.109 4.529 4.414 4.414 0 000 .815c.143 1.56.52 3.08 1.116 4.539 1.841 3.814.547 8.524-3.008 10.99l-.795.543a14.937 14.937 0 00-3.477 2.899 3.772 3.772 0 00-.494.674c-.396.67-.739 1.366-1.026 2.085.464.187.857.544 1.08 1.034l10.379 22.669c.323.705.21 1.541-.293 2.136a2.044 2.044 0 01-2.06.654l-12.338-3.224-.176.07-5.823 11.406A2.034 2.034 0 0171.325 113h-.043a2.048 2.048 0 01-1.798-1.179L60.061 91.26a8.85 8.85 0 01-3.554.74c-.918 0-1.836-.14-2.714-.421l-9.277 20.242A2.028 2.028 0 0142.719 113h-.043c-.76 0-1.457-.423-1.803-1.108l-5.818-11.395-.177-.08-12.343 3.223a2.042 2.042 0 01-2.06-.654 2.012 2.012 0 01-.293-2.136l10.38-22.669c.079-.174.18-.331.297-.47a15.034 15.034 0 00-1.242-2.669 4.39 4.39 0 00-.49-.664 14.987 14.987 0 00-3.05-2.63l-.522-.33-.69-.472c-3.58-2.476-4.875-7.216-3.016-11.02a15.505 15.505 0 001.112-4.519 4.811 4.811 0 00-.001-.825 15.603 15.603 0 00-.923-4.043l-.2-.506c-1.846-3.774-.552-8.514 3.026-10.99l.692-.473.094-.06c1.3-.786 2.47-1.752 3.477-2.889.184-.211.35-.443.494-.674a15.318 15.318 0 001.696-4.207l.027-.151c.847-4.549 5.126-7.669 9.709-7.075l.13.02c1.526.12 3.06.01 4.553-.322.272-.06.54-.151.796-.262a14.961 14.961 0 003.703-2.335c.222-.221.45-.422.688-.624 3.182-2.656 7.983-2.656 11.163.01zM32.842 82.91l-7.211 15.754 8.218-2.146c1.894-.493 3.921.403 4.811 2.156l3.918 7.667 7.74-16.883-.085-.084a14.978 14.978 0 00-3.77-2.355 4.875 4.875 0 00-.69-.241 11.754 11.754 0 00-3.192-.332l-.749.006-.701.014-.064.01c-3.277.431-6.397-1.031-8.225-3.566zm39.12 3.576l-.139-.02c-1.532-.111-3.062 0-4.556.332-.272.06-.538.15-.792.262a14.509 14.509 0 00-3.063 1.812l8.01 17.47 3.917-7.668c.884-1.753 2.92-2.66 4.825-2.156l8.205 2.146-7.63-16.669c-1.684 3.089-5.122 4.963-8.776 4.49zM53.5 23.08c-.168.141-.327.282-.48.443l-.1.09a18.998 18.998 0 01-4.773 3.02 9.192 9.192 0 01-1.527.503 19.47 19.47 0 01-5.28.439l-.674-.047-.106-.02c-2.468-.322-4.81 1.4-5.263 3.825l-.023.13-.029.151a19.299 19.299 0 01-2.16 5.375 7.993 7.993 0 01-.95 1.298 19.128 19.128 0 01-4.359 3.643l-.622.423c-1.893 1.315-2.633 3.742-1.78 5.74l.166.359a19.716 19.716 0 011.427 5.766c.047.514.047 1.037 0 1.55a19.749 19.749 0 01-1.427 5.767l-.082.171c-.986 2.023-.261 4.57 1.696 5.928l.623.423a19.123 19.123 0 014.358 3.643c.353.392.673.835.946 1.298a19.185 19.185 0 012.163 5.374l.052.282c.454 2.436 2.812 4.156 5.249 3.824l.128-.02.249-.02.795-.014.8-.006a16.06 16.06 0 014.228.453c.44.11.883.262 1.317.453a18.645 18.645 0 014.456 2.72l.505.43.02.018a2.015 2.015 0 011.78 1.192c1.548.587 3.371.336 4.683-.767.165-.131.325-.282.48-.433l.1-.09a18.515 18.515 0 014.773-3.02 7.446 7.446 0 011.528-.503 19.458 19.458 0 015.81-.413l.133.02.116.01c2.47.312 4.812-1.398 5.263-3.824l.052-.282a19.392 19.392 0 012.16-5.374c.273-.463.594-.896.953-1.298a18.974 18.974 0 014.354-3.633l.63-.433c1.885-1.313 2.624-3.737 1.777-5.724l-.17-.375a19.669 19.669 0 01-1.427-5.767 8.487 8.487 0 010-1.55 19.747 19.747 0 011.428-5.766l.081-.181c.988-2.013.26-4.57-1.7-5.918l-.616-.423a18.884 18.884 0 01-4.361-3.643 8.317 8.317 0 01-.945-1.288 19.249 19.249 0 01-2.164-5.384l-.048-.252c-.443-2.436-2.796-4.177-5.244-3.855l-.133.02-.133.01c-1.951.162-3.908.03-5.82-.402a8.946 8.946 0 01-1.516-.493 19.185 19.185 0 01-4.78-3.03l-.105-.1a8.555 8.555 0 00-.479-.433c-1.711-1.439-4.292-1.439-6.003-.01zM60.87 39c.957 0 1.881.274 2.674.781 1.364.873 2.313 2.375 2.534 4.03.132 1.197.009 2.303-.394 3.653l-.215.72.531-.06c1.183-.128 2.562-.207 3.92.233l.109.04c.08.021.19.062.315.123.129.04.25.101.364.172.093.04.182.091.27.152.093.051.183.112.268.183 1.278 1.035 1.946 2.7 1.706 4.242-.305 2.345-.698 4.679-1.077 6.942l-.092.538-.165 1.172c-.198 1.364-.515 2.939-1.554 4.237-1.83 2.284-4.26 2.842-6.592 2.842-1.27 0-2.51-.162-3.608-.315l-1.166-.152a43.02 43.02 0 01-2.09-.283l-1.447-.234-.928-.143-.747-.14-.814-.143-.188-.031h-1.51c-.128 0-.253-.013-.374-.036A2.854 2.854 0 0148.096 69h-4.192C42.302 69 41 67.635 41 65.969V53.03C41 51.365 42.302 50 43.904 50h4.192c1.02 0 1.918.554 2.437 1.386.467-.284.961-.455 1.347-.57l.3-.084.189-.04.084-.031.225-.132.153-.162.123-.122c.126-.11.255-.245.39-.397l1.492-1.744.173-.19.303-.34.139-.16.494-.555c.161-.176.319-.344.477-.501l.094-.091c.136-.122.284-.335.451-.64.295-.528.509-1.208.659-2.08.079-.528.164-1.127.207-1.756.128-1.573 1.203-2.66 2.737-2.78l.161-.011h.14zM47.172 54.015h-2.344v10.97h2.344v-10.97zM61.64 43.364l-.04.29-.08.552c-.238 1.39-.601 2.497-1.12 3.43-.381.69-.781 1.219-1.25 1.655-.168.17-.335.352-.507.545l-.67.757c-.07.08-.142.16-.215.24l-1.168 1.37c-.287.336-.616.721-1.028 1.087l-.18.192a4.25 4.25 0 01-.845.632l-.238.14a2.555 2.555 0 01-.382.182l-.254.088a4.57 4.57 0 01-.532.146l-.179.06-.005.123v8.677h.018l1.013.172.886.163.92.142 1.382.223c.676.106 1.33.201 1.962.274.414.04.828.102 1.247.162l.617.08.59.07.565.056.273.023.526.033c1.799.083 3.137-.19 4.07-1.347.362-.453.536-1.212.662-2.024l.072-.49.034-.247c.034-.244.068-.487.104-.73l.097-.58c.314-1.858.614-3.646.872-5.451l.196-1.419c0-.06-.048-.193-.15-.325l-.024-.01-.063-.04-.065-.02-.079-.031c-.546-.164-1.233-.148-1.92-.09l-.587.059-.288.03-.032.006-.207.018-1.337.05-.486.023-.402.026a1.863 1.863 0 01-1.222.05c-1.028-.294-1.636-1.38-1.376-2.446l.073-.253.378-1.228c.075-.244.145-.478.213-.713l.1-.353c.11-.375.218-.761.338-1.147.233-.781.308-1.36.245-1.928a1.665 1.665 0 00-.522-.954z" fill="#007FED"/></g></svg>
