<svg width="128" height="128" viewBox="0 0 128 128" xmlns="http://www.w3.org/2000/svg"><g fill="none" fill-rule="evenodd"><path fill="#AAE4FF" d="M115.9 74H76.09l-.09-.09V34.1l.09-.1h39.81l.1.1v39.81l-.1.09"/><path d="M81.087 19C83.25 19 85 20.748 85 22.895V54h25.156A2.85 2.85 0 01113 56.846v33.991a2.844 2.844 0 01-2.844 2.846h-4.152l-.02 14.32a2 2 0 01-1.997 1.997c-.519 0-1.038-.2-1.417-.59L86.99 93.684H53.844A2.844 2.844 0 0151 90.837V74.922h-6.108L26.21 93.422c-.38.38-.89.579-1.41.579-.251 0-.511-.05-.761-.15a2.015 2.015 0 01-1.241-1.828l-.18-17.1h-5.714A3.906 3.906 0 0113 71.019V22.895A3.904 3.904 0 0116.903 19h64.184zm.68 38.854H60.952v15.071c0 1.099-.89 1.998-2.001 1.998l-3.96-.001v14.767h32.827c.539 0 1.048.22 1.417.6l12.765 12.87.01-11.473c.01-1.098.899-1.997 1.996-1.997h5V57.994H82.5c-.258 0-.506-.05-.733-.14zm-.77-34.859H17.003v47.933h7.595c1.1 0 1.991.879 2.001 1.977l.15 14.353 15.912-15.751c.37-.37.88-.58 1.41-.58h12.88V56.706a2.854 2.854 0 012.852-2.847h21.194V22.995zM94.09 65.313a1.976 1.976 0 01.603 2.726L84.508 84.081c-.326.514-.88.85-1.482.91L82.84 85a1.948 1.948 0 01-1.433-.612l-5.867-6.184a1.98 1.98 0 01.08-2.796 1.98 1.98 0 012.795.08l4.109 4.336 8.84-13.909a1.967 1.967 0 012.726-.602zM47.505 56C49.392 56 51 57.608 51 59.495 51 61.52 49.392 63 47.505 63 45.62 63 44 61.381 44 59.495 44 57.608 45.619 56 47.505 56zm-.41-25c3.857 0 7.228 1.871 8.844 5.127 1.567 3.147 1.382 6.537-.448 9.136l-.176.241c-1.103 1.537-2.197 2.4-3.127 3.013l-.363.232-.276.188c-.907.635-1.223 1.09-1.34 2.69 0 .746-.744 1.373-1.497 1.373h-2.36c-.873 0-1.616-.747-1.497-1.623.31-3.402 1.373-4.934 2.852-6.208l.323-.27.335-.265.347-.265c.872-.617 1.497-1.125 2.24-2.12.712-.95.858-2.228.354-3.415l-.096-.209c-.377-.876-1.497-2.25-4.114-2.25-3.175 0-4.35 1.892-4.68 3.578l-.05.295a1.489 1.489 0 01-1.497 1.254h-2.36c-.872 0-1.615-.756-1.496-1.752.624-4.5 3.856-8.75 10.083-8.75z" fill="#007FED"/></g></svg>
