<svg width="72" height="72" viewBox="0 0 72 72" fill="none" xmlns="http://www.w3.org/2000/svg"><path fill-rule="evenodd" clip-rule="evenodd" d="M51.488 36.382c6.213 0 11.25 5.04 11.25 11.25 0 6.216-5.037 11.25-11.25 11.25s-11.25-5.034-11.25-11.25c0-6.21 5.037-11.25 11.25-11.25" fill="#AAE4FF"/><path fill-rule="evenodd" clip-rule="evenodd" d="M50.462 20.464a1.841 1.841 0 011.835 1.735l.004.104v18.732c4.698 1.29 8.167 5.552 8.262 10.635l.002.215-.001.194c-.104 6.126-5.1 11.056-11.248 11.056-5.953 0-10.824-4.62-11.224-10.473H11.401a1.841 1.841 0 01-1.835-1.736l-.004-.104V22.303a1.841 1.841 0 011.734-1.836l.105-.003h39.061zm-1.147 22.421a8.963 8.963 0 00-6.364 2.638 8.966 8.966 0 00-2.636 6.362 8.98 8.98 0 002.636 6.367 8.982 8.982 0 006.364 2.633 8.982 8.982 0 006.365-2.633 8.976 8.976 0 002.633-6.134l.002-.233-.002-.232a8.962 8.962 0 00-2.633-6.13 8.963 8.963 0 00-6.364-2.638zm-.218 1.226a1.17 1.17 0 011.166 1.087l.003.083v.98l.043.01c.656.15 1.285.41 1.82.789l.157.117a1.159 1.159 0 01.254 1.556l-.059.08c-.228.293-.572.45-.918.45-.252 0-.51-.084-.723-.252-.434-.35-1.2-.574-1.906-.569-.426 0-.829.08-1.12.22-.226.112-.363.236-.454.382-.09.147-.143.327-.143.585.002.152.03.231.082.31.052.078.146.163.317.247.227.12.58.228 1.045.336l.293.065.32.066.17.034c.59.118 1.255.247 1.876.478.618.236 1.212.58 1.597 1.164.256.389.4.872.4 1.435 0 .658-.16 1.265-.475 1.783a3.331 3.331 0 01-1.353 1.243 4.038 4.038 0 01-1.05.35l-.173.03v1.398c0 .618-.478 1.124-1.085 1.167l-.084.002a1.17 1.17 0 01-1.166-1.086l-.003-.084v-1.436l-.041-.008a5.275 5.275 0 01-1.653-.674l-.162-.109a1.178 1.178 0 01-.335-1.542l.058-.09c.226-.32.59-.494.953-.489.2-.004.403.049.586.156l.09.058c.454.326 1.17.523 1.834.518.395.005.769-.066 1.054-.192l.103-.05a.998.998 0 00.427-.372c.086-.146.136-.326.136-.573-.002-.09-.014-.118-.04-.158a.595.595 0 00-.184-.14l-.058-.029a2.57 2.57 0 00-.382-.146l-.205-.06-.234-.06-.265-.062-.143-.031-.31-.064-.631-.126c-.481-.1-1-.222-1.498-.412-.66-.26-1.301-.636-1.716-1.277-.276-.422-.435-.95-.433-1.57-.001-.675.167-1.299.497-1.822a3.333 3.333 0 011.417-1.243c.292-.144.603-.249.924-.32l.21-.043v-.92c0-.618.48-1.124 1.087-1.167l.083-.003zm.954-21.398H11.812v27.698h-.411l.057.005a.406.406 0 01.35.344l.005.062v-.41H38.16a11.257 11.257 0 015.282-8.124H36.29a1.366 1.366 0 01-1.363-1.272l-.004-.094v-8.719a1.367 1.367 0 011.273-1.363l.094-.004h13.76v-8.123zm-.04 10.373H37.173v6.952h12.838v-6.952zm-9.297 1.947a1.7 1.7 0 011.425.772l.06.1v-.006a1.726 1.726 0 01.02 1.682 1.638 1.638 0 01-.53.579l-.099.062c-.258.146-.544.22-.82.22a1.73 1.73 0 01-1.505-2.554 1.69 1.69 0 01.529-.58l.1-.062-.004.006.113-.06c.19-.092.394-.141.593-.155l.118-.005zm.057 1.158a.555.555 0 00-.294.073l-.002.006a.563.563 0 00-.194.174l-.033.051a.555.555 0 00-.069.264c0 .068.013.135.039.198l.03.061h-.002a.544.544 0 00.693.217l.074-.037-.004.006a.594.594 0 00.292-.431l.004-.064c0-.09-.024-.18-.067-.259a.53.53 0 00-.467-.259zm2.613-23.957a1.126 1.126 0 011.657 1.52l-.066.072-4.24 4.241a1.126 1.126 0 01-1.656-1.52l.065-.071 4.24-4.242zm-26.062.09a1.126 1.126 0 011.519-.065l.071.065 4.154 4.152a1.126 1.126 0 01-1.519 1.657l-.071-.066-4.154-4.15a1.126 1.126 0 010-1.593zm13.596-3.886c.593 0 1.079.456 1.122 1.04l.003.085v4.415c0 .619-.504 1.125-1.125 1.125a1.127 1.127 0 01-1.122-1.041l-.003-.084V9.563c0-.625.504-1.126 1.125-1.126z" fill="#007FED"/></svg>
