<svg width="72" height="72" viewBox="0 0 72 72" fill="none" xmlns="http://www.w3.org/2000/svg"><path fill-rule="evenodd" clip-rule="evenodd" d="M64.432 29.813H42.038l-.053-.051V7.369l.053-.056h22.394l.053.056v22.393l-.053.05z" fill="#AAE4FF"/><path fill-rule="evenodd" clip-rule="evenodd" d="M55.528 12.319c1.346 0 2.567.585 3.428 1.496a5.147 5.147 0 011.387 3.352l.003.186v28.13h.001v6.441c0 .034-.001.066-.004.1l-.008.051.007-.106-.324.754c.162-.162.271-.375.312-.602l.005-.044-.004.08a4.658 4.658 0 01-1.181 2.772l-.12.128a4.28 4.28 0 01-2.892 1.297l-15.204.155c.264.59.708 1.232 1.59 1.755.551.325 1.286.607 2.284.762l.307.044.046.009c.01.002.012.004.01.005l-.02.003h-.069l.117.023c.448.105.852.331 1.168.635l.093.094c.451.478.721 1.13.721 1.834 0 .697-.27 1.35-.721 1.828a2.51 2.51 0 01-1.676.789l-.143.004H22.94c-.717 0-1.37-.315-1.818-.793a2.665 2.665 0 01-.723-1.828c0-.704.271-1.356.723-1.834a2.379 2.379 0 011.51-.782c1.112-.146 1.913-.445 2.503-.793.59-.349.979-.754 1.257-1.153.047-.069.008-.132-.117-.19l-.07-.03-.084-.028-.098-.028-.113-.026-.127-.026-.142-.026-.239-.036-.177-.023-.398-.045-.455-.041-.249-.02-.541-.036-.758-.042-.497-.022-.714-.028-1.177-.035-1.08-.025-1.664-.026-1.295-.012-1.673-.01-1.789-.001-1.244.002a4.268 4.268 0 01-3.06-1.3 4.657 4.657 0 01-1.314-3.088l-.001.108v-.209l-.003-.079.001-.315.001-.045V17.353c0-1.367.526-2.621 1.389-3.538a4.73 4.73 0 013.253-1.493l.174-.003h43.398zm0 2.25H12.13c-.69 0-1.315.292-1.792.793a2.879 2.879 0 00-.771 1.835l-.004.156V51.78l.001.072-.002-.033.003.067c.023.636.282 1.198.672 1.598.362.368.818.588 1.326.62l.127.004h16.476a1.133 1.133 0 011.125 1.17l-.008.145a5.602 5.602 0 01-.007.083l-.019.187a6.074 6.074 0 01-.473 1.722c-.41.94-1.184 2.008-2.506 2.785-.82.483-1.839.853-3.08 1.047l-.276.04-.042.017a.4.4 0 00-.124.083.4.4 0 00-.108.286c0 .124.047.22.108.282.05.054.096.079.145.087l.038.003h21.702c.065 0 .12-.023.184-.09a.397.397 0 00.106-.282.402.402 0 00-.106-.286.888.888 0 01-.145-.02l-.152-.032-.19-.047-.222-.06-.247-.07-.267-.082-.425-.136-.29-.099-.289-.104a14.603 14.603 0 01-.142-.053l-.276-.108a6.33 6.33 0 01-.8-.376 6.138 6.138 0 01-1.968-1.817 6.047 6.047 0 01-.93-2.19l-.038-.207-.03-.191-.02-.173-.014-.154-.01-.132a1.127 1.127 0 01.311-.879c.189-.195.442-.32.71-.344l.101-.005h16.476a2.01 2.01 0 001.454-.624c.39-.4.648-.957.67-1.598l.004-.107.001.146v-.173l.005-.207-.005-.034V17.354a2.89 2.89 0 00-.777-1.992c-.444-.467-1.019-.753-1.654-.79l-.138-.003zm-1.273 1.856c.27 0 .532.073.752.186.222.112.404.27.548.444.257.319.402.697.43 1.102l.004.136v31.24l-.004.129c-.019.296-.1.578-.242.834-.16.292-.403.55-.736.725-.189.097-.408.16-.637.176l-.115.004H13.404c-.27 0-.533-.067-.753-.18a1.813 1.813 0 01-.548-.444 1.958 1.958 0 01-.43-1.107l-.004-.136V18.293c0-.338.085-.67.246-.957a1.78 1.78 0 01.736-.725c.189-.097.408-.164.638-.182l.115-.004h40.85zm0 32.726h-.516v.383l.002-.03a.265.265 0 01.041-.11l.034-.046.028-.034a.454.454 0 01.08-.065l.052-.03.06-.027a.635.635 0 01.142-.036l.077-.005zm-40.336 0h-.515c.077 0 .153.016.218.04l.06.028.062.038c.056.039.092.08.117.114l.021.033.019.04c.01.024.014.044.017.063l.001.027v-.383zm39.82-30.476h-39.82v30.476h39.82V18.675zM22.424 35.01c.143 0 .289.008.435.02l.22.025a4.502 4.502 0 013.828 4.886l-.026.216-1.114-.158 1.114.163a4.5 4.5 0 01-4.883 3.827l-.217-.024a4.503 4.503 0 01-2.284-7.87 4.499 4.499 0 012.927-1.085zm25.317 1.294c.165 0 .325.022.497.084.17.062.366.152.573.405.119.145.235.374.258.641l.004.102v4.618l-.004.101a1.215 1.215 0 01-.656.973c-.21.106-.393.146-.578.155l-.094.003H33.877c-.165 0-.323-.023-.495-.08a1.318 1.318 0 01-.575-.404c-.12-.15-.235-.38-.258-.647l-.005-.101v-4.618c-.001-.31.128-.58.262-.743.136-.169.274-.259.396-.326.21-.111.393-.152.58-.161l.095-.002H47.74zm-25.317.956a2.27 2.27 0 00-1.462.54 2.255 2.255 0 00-.241 3.178c.315.366.74.628 1.243.734l.139.025a2.243 2.243 0 001.79-.523c.367-.314.631-.737.736-1.239l.025-.139.013-.112a2.258 2.258 0 00-.533-1.682 2.235 2.235 0 00-1.242-.734l-.14-.026a2.174 2.174 0 00-.328-.022zm24.4 1.294h-12.03v2.587h12.03v-2.587zm-12.03-1.018l-.003.092c-.018.211-.1.394-.187.517l-.038.049-.057.065a.873.873 0 01-.28.209l-.087.035-.075.024a.815.815 0 01-.13.022l-.06.005h.918v-1.018zm12.03 0v1.018h.917a.833.833 0 01-.313-.07l-.07-.032-.043-.024a.966.966 0 01-.206-.17l-.056-.064-.038-.05a1.066 1.066 0 01-.188-.516l-.004-.092zm1.175-7.24c.622 0 1.126.506 1.126 1.125 0 .596-.46 1.08-1.042 1.122l-.084.003H32.98c-.62 0-1.124-.5-1.124-1.125 0-.59.46-1.078 1.041-1.122l.084-.003H48zm-25.576-7.33c.144 0 .29.008.436.023l.22.028a4.498 4.498 0 013.827 4.883l-.025.22-.031.184a4.499 4.499 0 01-4.852 3.642l-.217-.024a4.503 4.503 0 01-3.806-5.102 4.498 4.498 0 014.448-3.853zm0 2.25c-.547 0-1.06.203-1.46.546a2.226 2.226 0 00-.786 1.71 2.248 2.248 0 001.787 2.197l.139.025a2.24 2.24 0 002.526-1.763l.025-.138.013-.11a2.232 2.232 0 00-.533-1.678 2.247 2.247 0 00-1.242-.74l-.14-.026a2.174 2.174 0 00-.328-.022zM48 24.582c.622 0 1.126.506 1.126 1.125 0 .596-.46 1.08-1.042 1.122l-.084.003H32.98c-.62 0-1.124-.5-1.124-1.125 0-.59.46-1.078 1.041-1.122l.084-.003H48zm-34.08-6.288c-.001.05-.01.106-.076.19a.536.536 0 01-.108.099l-.052.031-.048.022a.566.566 0 01-.17.04h.454v-.383zm39.82 0l.037.134a.307.307 0 01-.035-.107l-.002-.027v.382h.516a.551.551 0 01-.232-.04l-.047-.022-.237-.32zM33.877 41.14c.09 0 .178.009.31.064l.07.032.044.024a.886.886 0 01.206.168l.058.067.038.049c.088.123.17.31.188.518l.004.09v-1.012h-.918zm12.946 0v1.013l.004-.093c.018-.21.1-.394.189-.517l.038-.048.057-.066a.865.865 0 01.326-.228l.041-.016.06-.02a.645.645 0 01.14-.023l.063-.002h-.918z" fill="#007FED"/></svg>
