<svg width="128" height="128" viewBox="0 0 128 128" xmlns="http://www.w3.org/2000/svg"><g fill="none" fill-rule="evenodd"><path d="M91.248 103.99H41.512l-.13-.098-3.447-31.804.104-.098h56.793l.103.098-3.423 31.804c-3.423 0-.206.098-.264.098" fill="#AAE4FF"/><path d="M64.262 18c2.192.02 4.674.38 7.106 1.47 2.429 1.08 4.786 2.91 6.586 5.72 1.124 1.745 2.036 3.857 2.677 6.374l.126.516-1.941.48 1.947-.451.083.352c.082.377.144.742.197 1.076l.074.476.061.34.092.444.08.348.097.385.115.418c.02.073.042.146.065.22l.144.463c.026.08.052.16.08.24l.176.498c.094.254.196.515.308.781.808 1.927 2.092 4.103 4.067 5.847l.356.303-.009-.01a4.602 4.602 0 011.66 2.98l.027.26a4.572 4.572 0 01-1.034 3.204l-.197.226a20.612 20.612 0 01-8.649 5.313l-.042.012.135.052c.583.226 1.178.476 1.777.751l.45.212c2.693 1.29 5.451 3.11 7.328 5.83a11.38 11.38 0 012.042 6.163l.005.487h4.383a3.869 3.869 0 013.853 3.662l.006.198-.019.28-4.623 32.909 9.774.001c1.054 0 1.918.82 1.995 1.851l.005.149c0 1.05-.816 1.918-1.85 1.994l-.15.006H90.729c-.17.035-.343.059-.52.07l-.268.01H38.683c-.27 0-.534-.028-.788-.08H25c-1.105 0-2-.9-2-2 0-1.05.815-1.918 1.85-1.994l.15-.006 9.779-.001-4.107-32.939-.015-.25a3.869 3.869 0 013.66-3.854l.199-.006 3.689-.001-.001-.069a11.43 11.43 0 012.05-6.57c1.248-1.81 2.903-3.23 4.655-4.35 1.44-.923 2.951-1.661 4.405-2.251l.645-.254-.04-.012a20.58 20.58 0 01-8.33-5.002l-.319-.321-.035-.03a4.562 4.562 0 01-1.193-3.41 4.59 4.59 0 011.657-3.21c2.181-1.79 3.573-4.12 4.428-6.17.149-.355.282-.7.4-1.031l.165-.486.074-.234.134-.446.115-.417.097-.382.08-.345.092-.438.085-.491.084-.539c.061-.377.137-.788.24-1.221.65-2.75 1.615-5.04 2.821-6.91 1.205-1.87 2.652-3.31 4.206-4.38 2.998-2.067 6.312-2.73 9.155-2.804l.387-.006zm30.192 55.779H34.688l4.122 33.05h51.007l.003-.049 4.634-33.001zm.058-.409l-.058.409.18.001c-.074 0-.115-.026-.132-.087l-.009-.053h2l-1.981-.27zm-59.87.03l-1.985.24h2c-.006.08-.034.122-.092.135l-.049.005.172-.001-.046-.379zM64.236 22l-.36.009c-1.682.056-3.473.368-5.138 1.111-1.795.81-3.466 2.09-4.862 4.24-.928 1.44-1.729 3.28-2.29 5.66-.075.32-.134.636-.187.956l-.127.799-.078.42-.069.332-.13.573-.109.427-.126.46-.145.49a24.152 24.152 0 01-.798 2.203c-1.031 2.46-2.733 5.36-5.573 7.71a.577.577 0 00-.198.316l-.014.094-.002.04c0 .097.03.195.084.284l.051.07.266.267a16.622 16.622 0 0010.523 4.717l.41.022a1.99 1.99 0 011.83 1.404l.028.108-.018.145-.006.086-.002 1.997c0 .394-.135.772-.38 1.075l-.193.215-.042.04c-.197.169-.429.3-.685.385l-.157.045-.657.161c-1.608.41-3.728 1.069-5.761 2.049-2.331 1.11-4.505 2.64-5.77 4.49-.791 1.167-1.274 2.43-1.34 3.974l-.008.315 44.049.001c-.006-1.587-.435-2.877-1.18-4.05l-.164-.25c-.847-1.23-2.082-2.33-3.513-3.24-2.733-1.77-6.138-2.844-8.361-3.38l-.296-.07-.157-.045a2.011 2.011 0 01-1.285-1.276l.013.054c.064.211.168.409.307.582l.112.125c.685.7.764 1.79.19 2.58a9.487 9.487 0 01-7.707 3.92 9.446 9.446 0 01-5.587-1.81 9.568 9.568 0 01-2.108-2.11 2.004 2.004 0 01.075-2.453l.032-.037.072-.065c.366-.366.586-.868.586-1.415v-1.56c0-.153-.017-.302-.05-.445l-.009-.033.005-.027a2.02 2.02 0 01.437-.936l.118-.129c.083-.082.172-.157.268-.224l.113-.073-.047-.028a11.537 11.537 0 01-4.226-4.643l-.155-.322-.012-.028-.07-.144a9.683 9.683 0 01-.737-2.475l-.06-.392-.045-.341-.051-.51-.004-.025-.014-.155-.288-5.75a1.997 1.997 0 011.791-2.09c1.692-.18 3.601-.58 5.354-1.37 1.757-.78 3.346-1.93 4.557-3.64a1.99 1.99 0 011.811-.84c.712.06 1.331.5 1.634 1.14a10.997 10.997 0 006.922 5.91 1.988 1.988 0 011.448 1.857l-.002.163-.237 4.69a11.495 11.495 0 01-5.264 8.874l-.199.122.073.045c.459.306.782.794.87 1.356l.013.115-.008.045c-.014.1-.022.2-.022.303v1.56c0 .164.02.324.057.478l.041.141-.024-.097a1.717 1.717 0 01-.032-.332v-1.9l-.006-.158-.006-.04.02-.1a1.99 1.99 0 011.716-1.54l.152-.012a16.61 16.61 0 0010.932-4.729l.268-.271.05-.066a.572.572 0 00.073-.191l.01-.103v-.02a.588.588 0 00-.147-.344l-.07-.066-.009-.01c-2.842-2.34-4.545-5.24-5.575-7.7a24.013 24.013 0 01-.541-1.418l-.176-.53-.156-.504-.135-.475-.117-.445-.143-.602-.11-.516-.115-.646-.016-.104a18.134 18.134 0 00-.185-1.073l-.082-.357c-.557-2.38-1.354-4.22-2.279-5.66-.926-1.44-1.979-2.48-3.107-3.26-2.133-1.473-4.61-2.015-6.908-2.092L64.236 22zm1.243 13.933l-.12.114a15.6 15.6 0 01-4.126 2.663 20.526 20.526 0 01-4.487 1.383l-.207.037.193 3.854.035.346c.019.18.046.42.091.68.074.446.21.98.389 1.394l.121.256a7.546 7.546 0 003.394 3.542l.283.138-.014-.01a3.5 3.5 0 012.044 2.947l.008.223a3.47 3.47 0 01-1.866 3.075l-.021.01v.355a5.73 5.73 0 01-.424 2.165l-.106.241.079.068.229.176c.986.72 2.11 1.05 3.237 1.06a5.572 5.572 0 003.336-1.121l.223-.179-.109-.249a5.702 5.702 0 01-.417-1.88l-.007-.281-.001-.349-.023-.01a3.479 3.479 0 01-1.857-2.893l-.005-.208a3.497 3.497 0 011.871-3.061l.183-.089-.013.01a7.515 7.515 0 004.326-6.018l.024-.272.156-3.116-.318-.133a14.977 14.977 0 01-5.995-4.724l-.106-.144z" fill="#007FED"/></g></svg>
